{"glyphs":{"0":{"ha":1944,"x_min":0,"x_max":1666,"o":"m 1111 277 l 1111 1389 l 555 1389 l 555 277 l 1111 277 m 0 0 l 0 1666 l 1666 1666 l 1666 0 l 0 0 z "},"1":{"ha":1111,"x_min":0,"x_max":833,"o":"m 277 0 l 277 1111 l 0 1111 l 0 1389 l 277 1389 l 277 1666 l 833 1666 l 833 0 l 277 0 z "},"2":{"ha":1944,"x_min":0,"x_max":1666,"o":"m 0 0 l 0 1111 l 1111 1111 l 1111 1389 l 0 1389 l 0 1666 l 1666 1666 l 1666 833 l 555 833 l 555 277 l 1666 277 l 1666 0 l 0 0 z "},"3":{"ha":1944,"x_min":0,"x_max":1666,"o":"m 0 0 l 0 277 l 1111 277 l 1111 833 l 277 833 l 277 1111 l 1111 1111 l 1111 1389 l 0 1389 l 0 1666 l 1666 1666 l 1666 0 l 0 0 z "},"4":{"ha":1944,"x_min":0,"x_max":1666,"o":"m 1111 0 l 1111 833 l 0 833 l 0 1666 l 555 1666 l 555 1111 l 1111 1111 l 1111 1666 l 1666 1666 l 1666 0 l 1111 0 z "},"5":{"ha":1944,"x_min":0,"x_max":1666,"o":"m 0 0 l 0 277 l 1111 277 l 1111 833 l 0 833 l 0 1666 l 1666 1666 l 1666 1389 l 555 1389 l 555 1111 l 1666 1111 l 1666 0 l 0 0 z "},"6":{"ha":1944,"x_min":0,"x_max":1666,"o":"m 1111 277 l 1111 833 l 555 833 l 555 277 l 1111 277 m 0 0 l 0 1666 l 1666 1666 l 1666 1389 l 555 1389 l 555 1111 l 1666 1111 l 1666 0 l 0 0 z "},"7":{"ha":1944,"x_min":0,"x_max":1666,"o":"m 1111 0 l 1111 1389 l 0 1389 l 0 1666 l 1666 1666 l 1666 0 l 1111 0 z "},"8":{"ha":1944,"x_min":0,"x_max":1666,"o":"m 1111 277 l 1111 833 l 555 833 l 555 277 l 1111 277 m 1111 1111 l 1111 1389 l 555 1389 l 555 1111 l 1111 1111 m 0 0 l 0 1666 l 1666 1666 l 1666 0 l 0 0 z "},"9":{"ha":1944,"x_min":0,"x_max":1666,"o":"m 1111 1111 l 1111 1389 l 555 1389 l 555 1111 l 1111 1111 m 0 0 l 0 277 l 1111 277 l 1111 833 l 0 833 l 0 1666 l 1666 1666 l 1666 0 l 0 0 z "}," ":{"ha":833,"x_min":0,"x_max":0,"o":""},"!":{"ha":833,"x_min":0,"x_max":555,"o":"m 0 0 l 0 277 l 555 277 l 555 0 l 0 0 m 0 555 l 0 1666 l 555 1666 l 555 555 l 0 555 z "},"\"":{"ha":1666,"x_min":0,"x_max":1389,"o":"m 0 833 l 0 1389 l 277 1389 l 277 1666 l 555 1666 l 555 1111 l 277 1111 l 277 833 l 0 833 m 833 833 l 833 1389 l 1111 1389 l 1111 1666 l 1389 1666 l 1389 1111 l 1111 1111 l 1111 833 l 833 833 z "},"#":{"ha":1944,"x_min":0,"x_max":1666,"o":"m 1111 555 l 1111 1111 l 833 1111 l 833 555 l 1111 555 m 277 0 l 277 277 l 0 277 l 0 555 l 277 555 l 277 1111 l 0 1111 l 0 1389 l 277 1389 l 277 1666 l 833 1666 l 833 1389 l 1111 1389 l 1111 1666 l 1389 1666 l 1389 1389 l 1666 1389 l 1666 1111 l 1389 1111 l 1389 555 l 1666 555 l 1666 277 l 1389 277 l 1389 0 l 1111 0 l 1111 277 l 833 277 l 833 0 l 277 0 z "},"$":{"ha":1944,"x_min":0,"x_max":1666,"o":"m 555 -277 l 555 0 l 0 0 l 0 277 l 555 277 l 555 833 l 0 833 l 0 1389 l 277 1389 l 277 1111 l 555 1111 l 555 1389 l 277 1389 l 277 1666 l 555 1666 l 555 1944 l 1111 1944 l 1111 1666 l 1666 1666 l 1666 1389 l 1111 1389 l 1111 1111 l 1666 1111 l 1666 277 l 1389 277 l 1389 833 l 1111 833 l 1111 277 l 1389 277 l 1389 0 l 1111 0 l 1111 -277 l 555 -277 z "},"%":{"ha":1944,"x_min":0,"x_max":1666,"o":"m 1111 0 l 1111 555 l 1666 555 l 1666 0 l 1111 0 m 0 1111 l 0 1666 l 555 1666 l 555 1111 l 0 1111 m 277 0 l 277 555 l 555 555 l 555 1111 l 833 1111 l 833 1666 l 1389 1666 l 1389 1111 l 1111 1111 l 1111 555 l 833 555 l 833 0 l 277 0 z "},"&":{"ha":1944,"x_min":0,"x_max":1666,"o":"m 1389 0 l 1389 277 l 1666 277 l 1666 0 l 1389 0 m 1111 277 l 1111 555 l 1389 555 l 1389 277 l 1111 277 m 1389 555 l 1389 833 l 1666 833 l 1666 555 l 1389 555 m 1111 1111 l 1111 1389 l 1389 1389 l 1389 1111 l 1111 1111 m 277 0 l 277 277 l 0 277 l 0 833 l 277 833 l 277 1111 l 0 1111 l 0 1389 l 277 1389 l 277 1666 l 1111 1666 l 1111 1389 l 555 1389 l 555 1111 l 1111 1111 l 1111 555 l 833 555 l 833 833 l 555 833 l 555 277 l 1111 277 l 1111 0 l 277 0 z "},"'":{"ha":833,"x_min":0,"x_max":555,"o":"m 0 833 l 0 1389 l 277 1389 l 277 1666 l 555 1666 l 555 1111 l 277 1111 l 277 833 l 0 833 z "},"(":{"ha":1111,"x_min":0,"x_max":833,"o":"m 277 0 l 277 277 l 0 277 l 0 1389 l 277 1389 l 277 1666 l 833 1666 l 833 1389 l 555 1389 l 555 277 l 833 277 l 833 0 l 277 0 z "},")":{"ha":1111,"x_min":0,"x_max":833,"o":"m 0 0 l 0 277 l 277 277 l 277 1389 l 0 1389 l 0 1666 l 555 1666 l 555 1389 l 833 1389 l 833 277 l 555 277 l 555 0 l 0 0 z "},"*":{"ha":1389,"x_min":0,"x_max":1111,"o":"m 0 555 l 0 833 l 277 833 l 277 555 l 0 555 m 833 555 l 833 833 l 1111 833 l 1111 555 l 833 555 m 277 833 l 277 1111 l 0 1111 l 0 1389 l 277 1389 l 277 1666 l 833 1666 l 833 1389 l 1111 1389 l 1111 1111 l 833 1111 l 833 833 l 277 833 z "},"+":{"ha":1111,"x_min":0,"x_max":833,"o":"m 277 277 l 277 555 l 0 555 l 0 833 l 277 833 l 277 1111 l 555 1111 l 555 833 l 833 833 l 833 555 l 555 555 l 555 277 l 277 277 z "},",":{"ha":833,"x_min":0,"x_max":555,"o":"m 0 -277 l 0 277 l 277 277 l 277 555 l 555 555 l 555 0 l 277 0 l 277 -277 l 0 -277 z "},"-":{"ha":1111,"x_min":0,"x_max":833,"o":"m 0 555 l 0 833 l 833 833 l 833 555 l 0 555 z "},".":{"ha":833,"x_min":0,"x_max":555,"o":"m 0 0 l 0 555 l 555 555 l 555 0 l 0 0 z "},"/":{"ha":1389,"x_min":0,"x_max":1111,"o":"m 0 0 l 0 555 l 277 555 l 277 1111 l 555 1111 l 555 1666 l 1111 1666 l 1111 1111 l 833 1111 l 833 555 l 555 555 l 555 0 l 0 0 z "},":":{"ha":833,"x_min":0,"x_max":555,"o":"m 0 0 l 0 555 l 555 555 l 555 0 l 0 0 m 0 1111 l 0 1666 l 555 1666 l 555 1111 l 0 1111 z "},";":{"ha":833,"x_min":0,"x_max":555,"o":"m 0 0 l 0 555 l 277 555 l 277 833 l 555 833 l 555 277 l 277 277 l 277 0 l 0 0 m 0 1111 l 0 1666 l 555 1666 l 555 1111 l 0 1111 z "},"<":{"ha":1389,"x_min":0,"x_max":1111,"o":"m 555 0 l 555 277 l 277 277 l 277 555 l 0 555 l 0 833 l 277 833 l 277 1111 l 555 1111 l 555 1389 l 1111 1389 l 1111 1111 l 833 1111 l 833 833 l 555 833 l 555 555 l 833 555 l 833 277 l 1111 277 l 1111 0 l 555 0 z "},"=":{"ha":1111,"x_min":0,"x_max":833,"o":"m 0 277 l 0 555 l 833 555 l 833 277 l 0 277 m 0 833 l 0 1111 l 833 1111 l 833 833 l 0 833 z "},">":{"ha":1389,"x_min":0,"x_max":1111,"o":"m 0 0 l 0 277 l 277 277 l 277 555 l 555 555 l 555 833 l 277 833 l 277 1111 l 0 1111 l 0 1389 l 555 1389 l 555 1111 l 833 1111 l 833 833 l 1111 833 l 1111 555 l 833 555 l 833 277 l 555 277 l 555 0 l 0 0 z "},"?":{"ha":1944,"x_min":0,"x_max":1666,"o":"m 555 0 l 555 277 l 1111 277 l 1111 0 l 555 0 m 555 555 l 555 833 l 833 833 l 833 1111 l 1111 1111 l 1111 1389 l 555 1389 l 555 1111 l 0 1111 l 0 1389 l 277 1389 l 277 1666 l 1389 1666 l 1389 1389 l 1666 1389 l 1666 833 l 1111 833 l 1111 555 l 555 555 z "},"@":{"ha":2500,"x_min":0,"x_max":2222,"o":"m 1389 0 l 1389 555 l 1111 555 l 1111 0 l 1389 0 m 0 0 l 0 1389 l 277 1389 l 277 0 l 0 0 m 1944 0 l 1944 1389 l 2222 1389 l 2222 0 l 1944 0 m 277 -277 l 277 0 l 555 0 l 555 1111 l 833 1111 l 833 1389 l 277 1389 l 277 1666 l 1944 1666 l 1944 1389 l 1389 1389 l 1389 1111 l 1111 1111 l 1111 833 l 1389 833 l 1389 1111 l 1666 1111 l 1666 0 l 1944 0 l 1944 -277 l 277 -277 z "},"A":{"ha":1944,"x_min":0,"x_max":1666,"o":"m 0 0 l 0 1389 l 277 1389 l 277 1666 l 1389 1666 l 1389 1389 l 555 1389 l 555 1111 l 1389 1111 l 1389 1389 l 1666 1389 l 1666 0 l 1389 0 l 1389 833 l 555 833 l 555 0 l 0 0 z "},"B":{"ha":1944,"x_min":0,"x_max":1666,"o":"m 1389 277 l 1389 833 l 1666 833 l 1666 277 l 1389 277 m 1389 1111 l 1389 1389 l 1666 1389 l 1666 1111 l 1389 1111 m 0 0 l 0 1666 l 1389 1666 l 1389 1389 l 555 1389 l 555 1111 l 1389 1111 l 1389 833 l 555 833 l 555 277 l 1389 277 l 1389 0 l 0 0 z "},"C":{"ha":1944,"x_min":0,"x_max":1666,"o":"m 277 0 l 277 277 l 0 277 l 0 1389 l 277 1389 l 277 1666 l 1666 1666 l 1666 1389 l 555 1389 l 555 277 l 1666 277 l 1666 0 l 277 0 z "},"D":{"ha":1944,"x_min":0,"x_max":1666,"o":"m 1389 277 l 1389 1389 l 1666 1389 l 1666 277 l 1389 277 m 0 0 l 0 1666 l 1389 1666 l 1389 1389 l 555 1389 l 555 277 l 1389 277 l 1389 0 l 0 0 z "},"E":{"ha":1944,"x_min":0,"x_max":1666,"o":"m 0 0 l 0 1666 l 1666 1666 l 1666 1389 l 555 1389 l 555 1111 l 1389 1111 l 1389 833 l 555 833 l 555 277 l 1666 277 l 1666 0 l 0 0 z "},"F":{"ha":1944,"x_min":0,"x_max":1666,"o":"m 0 0 l 0 1666 l 1666 1666 l 1666 1389 l 555 1389 l 555 1111 l 1389 1111 l 1389 833 l 555 833 l 555 0 l 0 0 z "},"G":{"ha":1944,"x_min":0,"x_max":1666,"o":"m 277 0 l 277 277 l 0 277 l 0 1389 l 277 1389 l 277 1666 l 1666 1666 l 1666 1389 l 555 1389 l 555 277 l 1389 277 l 1389 555 l 1111 555 l 1111 833 l 1666 833 l 1666 0 l 277 0 z "},"H":{"ha":1944,"x_min":0,"x_max":1666,"o":"m 0 0 l 0 1666 l 555 1666 l 555 1111 l 1389 1111 l 1389 1666 l 1666 1666 l 1666 0 l 1389 0 l 1389 833 l 555 833 l 555 0 l 0 0 z "},"I":{"ha":1944,"x_min":0,"x_max":1666,"o":"m 0 0 l 0 277 l 555 277 l 555 1389 l 0 1389 l 0 1666 l 1666 1666 l 1666 1389 l 1111 1389 l 1111 277 l 1666 277 l 1666 0 l 0 0 z "},"J":{"ha":1944,"x_min":0,"x_max":1666,"o":"m 0 0 l 0 555 l 277 555 l 277 277 l 1111 277 l 1111 1666 l 1666 1666 l 1666 0 l 0 0 z "},"K":{"ha":1944,"x_min":0,"x_max":1666,"o":"m 1389 0 l 1389 277 l 1666 277 l 1666 0 l 1389 0 m 1111 277 l 1111 555 l 1389 555 l 1389 277 l 1111 277 m 833 555 l 833 833 l 1111 833 l 1111 555 l 833 555 m 833 1111 l 833 1389 l 1111 1389 l 1111 1111 l 833 1111 m 0 0 l 0 1666 l 555 1666 l 555 1111 l 833 1111 l 833 833 l 555 833 l 555 0 l 0 0 m 1111 1389 l 1111 1666 l 1389 1666 l 1389 1389 l 1111 1389 z "},"L":{"ha":1944,"x_min":0,"x_max":1666,"o":"m 0 0 l 0 1666 l 555 1666 l 555 277 l 1666 277 l 1666 0 l 0 0 z "},"M":{"ha":1944,"x_min":0,"x_max":1666,"o":"m 833 1111 l 833 1389 l 1111 1389 l 1111 1111 l 833 1111 m 0 0 l 0 1666 l 833 1666 l 833 1389 l 555 1389 l 555 0 l 0 0 m 1389 0 l 1389 1389 l 1111 1389 l 1111 1666 l 1666 1666 l 1666 0 l 1389 0 z "},"N":{"ha":1944,"x_min":0,"x_max":1666,"o":"m 833 555 l 833 1111 l 1111 1111 l 1111 555 l 833 555 m 0 0 l 0 1666 l 833 1666 l 833 1111 l 555 1111 l 555 0 l 0 0 m 1111 0 l 1111 555 l 1389 555 l 1389 1666 l 1666 1666 l 1666 0 l 1111 0 z "},"O":{"ha":1944,"x_min":0,"x_max":1666,"o":"m 1389 277 l 1389 1389 l 1666 1389 l 1666 277 l 1389 277 m 277 0 l 277 277 l 0 277 l 0 1389 l 277 1389 l 277 1666 l 1389 1666 l 1389 1389 l 555 1389 l 555 277 l 1389 277 l 1389 0 l 277 0 z "},"P":{"ha":1944,"x_min":0,"x_max":1666,"o":"m 1389 833 l 1389 1389 l 1666 1389 l 1666 833 l 1389 833 m 0 0 l 0 1666 l 1389 1666 l 1389 1389 l 555 1389 l 555 833 l 1389 833 l 1389 555 l 555 555 l 555 0 l 0 0 z "},"Q":{"ha":1944,"x_min":0,"x_max":1666,"o":"m 1111 0 l 1111 277 l 833 277 l 833 555 l 1389 555 l 1389 277 l 1666 277 l 1666 0 l 1111 0 m 1389 555 l 1389 1389 l 1666 1389 l 1666 555 l 1389 555 m 277 0 l 277 277 l 0 277 l 0 1389 l 277 1389 l 277 1666 l 1389 1666 l 1389 1389 l 555 1389 l 555 277 l 833 277 l 833 0 l 277 0 z "},"R":{"ha":1944,"x_min":0,"x_max":1666,"o":"m 1389 0 l 1389 555 l 1666 555 l 1666 0 l 1389 0 m 1389 833 l 1389 1389 l 1666 1389 l 1666 833 l 1389 833 m 0 0 l 0 1666 l 1389 1666 l 1389 1389 l 555 1389 l 555 833 l 1389 833 l 1389 555 l 555 555 l 555 0 l 0 0 z "},"S":{"ha":1944,"x_min":0,"x_max":1666,"o":"m 0 0 l 0 277 l 1111 277 l 1111 833 l 0 833 l 0 1389 l 277 1389 l 277 1666 l 1666 1666 l 1666 1389 l 555 1389 l 555 1111 l 1666 1111 l 1666 277 l 1389 277 l 1389 0 l 0 0 z "},"T":{"ha":1944,"x_min":0,"x_max":1666,"o":"m 555 0 l 555 1389 l 0 1389 l 0 1666 l 1666 1666 l 1666 1389 l 1111 1389 l 1111 0 l 555 0 z "},"U":{"ha":1944,"x_min":0,"x_max":1666,"o":"m 277 0 l 277 277 l 0 277 l 0 1666 l 555 1666 l 555 277 l 1389 277 l 1389 0 l 277 0 m 1389 277 l 1389 1666 l 1666 1666 l 1666 277 l 1389 277 z "},"V":{"ha":1666,"x_min":0,"x_max":1389,"o":"m 555 0 l 555 277 l 277 277 l 277 555 l 0 555 l 0 1666 l 555 1666 l 555 555 l 1111 555 l 1111 277 l 833 277 l 833 0 l 555 0 m 1111 555 l 1111 1666 l 1389 1666 l 1389 555 l 1111 555 z "},"W":{"ha":1944,"x_min":0,"x_max":1666,"o":"m 1111 0 l 1111 277 l 1389 277 l 1389 0 l 1111 0 m 833 277 l 833 555 l 1111 555 l 1111 277 l 833 277 m 277 0 l 277 277 l 0 277 l 0 1666 l 555 1666 l 555 277 l 833 277 l 833 0 l 277 0 m 1389 277 l 1389 1666 l 1666 1666 l 1666 277 l 1389 277 z "},"X":{"ha":1944,"x_min":0,"x_max":1666,"o":"m 1389 0 l 1389 277 l 1666 277 l 1666 0 l 1389 0 m 1111 277 l 1111 555 l 1389 555 l 1389 277 l 1111 277 m 1111 1111 l 1111 1389 l 1389 1389 l 1389 1111 l 1111 1111 m 0 0 l 0 277 l 277 277 l 277 555 l 555 555 l 555 1111 l 277 1111 l 277 1389 l 0 1389 l 0 1666 l 555 1666 l 555 1389 l 833 1389 l 833 1111 l 1111 1111 l 1111 555 l 833 555 l 833 277 l 555 277 l 555 0 l 0 0 m 1389 1389 l 1389 1666 l 1666 1666 l 1666 1389 l 1389 1389 z "},"Y":{"ha":1944,"x_min":0,"x_max":1666,"o":"m 1111 833 l 1111 1111 l 1389 1111 l 1389 833 l 1111 833 m 555 0 l 555 833 l 277 833 l 277 1111 l 0 1111 l 0 1666 l 555 1666 l 555 1111 l 833 1111 l 833 833 l 1111 833 l 1111 0 l 555 0 m 1389 1111 l 1389 1666 l 1666 1666 l 1666 1111 l 1389 1111 z "},"Z":{"ha":1944,"x_min":0,"x_max":1666,"o":"m 0 0 l 0 555 l 277 555 l 277 833 l 833 833 l 833 555 l 555 555 l 555 277 l 1666 277 l 1666 0 l 0 0 m 833 833 l 833 1111 l 1111 1111 l 1111 1389 l 0 1389 l 0 1666 l 1666 1666 l 1666 1111 l 1389 1111 l 1389 833 l 833 833 z "},"[":{"ha":1111,"x_min":0,"x_max":833,"o":"m 0 0 l 0 1666 l 833 1666 l 833 1389 l 555 1389 l 555 277 l 833 277 l 833 0 l 0 0 z "},"\\":{"ha":1389,"x_min":0,"x_max":1111,"o":"m 555 0 l 555 555 l 277 555 l 277 1111 l 0 1111 l 0 1666 l 555 1666 l 555 1111 l 833 1111 l 833 555 l 1111 555 l 1111 0 l 555 0 z "},"]":{"ha":1111,"x_min":0,"x_max":833,"o":"m 0 0 l 0 277 l 277 277 l 277 1389 l 0 1389 l 0 1666 l 833 1666 l 833 0 l 0 0 z "},"^":{"ha":1389,"x_min":0,"x_max":1111,"o":"m 833 833 l 833 1389 l 1111 1389 l 1111 833 l 833 833 m 0 833 l 0 1389 l 277 1389 l 277 1666 l 833 1666 l 833 1389 l 555 1389 l 555 833 l 0 833 z "},"_":{"ha":1944,"x_min":0,"x_max":1666,"o":"m 0 0 l 0 555 l 1666 555 l 1666 0 l 0 0 z "},"`":{"ha":833,"x_min":0,"x_max":555,"o":"m 277 833 l 277 1111 l 0 1111 l 0 1666 l 277 1666 l 277 1389 l 555 1389 l 555 833 l 277 833 z "},"a":{"ha":1666,"x_min":0,"x_max":1389,"o":"m 0 0 l 0 1111 l 277 1111 l 277 1389 l 1111 1389 l 1111 1111 l 555 1111 l 555 833 l 1111 833 l 1111 1111 l 1389 1111 l 1389 0 l 1111 0 l 1111 555 l 555 555 l 555 0 l 0 0 z "},"b":{"ha":1666,"x_min":0,"x_max":1389,"o":"m 1111 277 l 1111 555 l 1389 555 l 1389 277 l 1111 277 m 1111 833 l 1111 1111 l 1389 1111 l 1389 833 l 1111 833 m 0 0 l 0 1389 l 1111 1389 l 1111 1111 l 555 1111 l 555 833 l 1111 833 l 1111 555 l 555 555 l 555 277 l 1111 277 l 1111 0 l 0 0 z "},"c":{"ha":1666,"x_min":0,"x_max":1389,"o":"m 277 0 l 277 277 l 0 277 l 0 1111 l 277 1111 l 277 1389 l 1389 1389 l 1389 1111 l 555 1111 l 555 277 l 1389 277 l 1389 0 l 277 0 z "},"d":{"ha":1666,"x_min":0,"x_max":1389,"o":"m 1111 277 l 1111 1111 l 1389 1111 l 1389 277 l 1111 277 m 0 0 l 0 1389 l 1111 1389 l 1111 1111 l 555 1111 l 555 277 l 1111 277 l 1111 0 l 0 0 z "},"e":{"ha":1666,"x_min":0,"x_max":1389,"o":"m 0 0 l 0 1389 l 1389 1389 l 1389 1111 l 555 1111 l 555 833 l 1111 833 l 1111 555 l 555 555 l 555 277 l 1389 277 l 1389 0 l 0 0 z "},"f":{"ha":1666,"x_min":0,"x_max":1389,"o":"m 0 0 l 0 1389 l 1389 1389 l 1389 1111 l 555 1111 l 555 833 l 1111 833 l 1111 555 l 555 555 l 555 0 l 0 0 z "},"g":{"ha":1666,"x_min":0,"x_max":1389,"o":"m 277 0 l 277 277 l 0 277 l 0 1111 l 277 1111 l 277 1389 l 1389 1389 l 1389 1111 l 555 1111 l 555 277 l 1111 277 l 1111 555 l 1389 555 l 1389 0 l 277 0 z "},"h":{"ha":1666,"x_min":0,"x_max":1389,"o":"m 0 0 l 0 1389 l 555 1389 l 555 833 l 1111 833 l 1111 1389 l 1389 1389 l 1389 0 l 1111 0 l 1111 555 l 555 555 l 555 0 l 0 0 z "},"i":{"ha":1389,"x_min":0,"x_max":1111,"o":"m 0 0 l 0 277 l 277 277 l 277 1111 l 0 1111 l 0 1389 l 1111 1389 l 1111 1111 l 833 1111 l 833 277 l 1111 277 l 1111 0 l 0 0 z "},"j":{"ha":1666,"x_min":0,"x_max":1389,"o":"m 0 0 l 0 555 l 277 555 l 277 277 l 833 277 l 833 1389 l 1389 1389 l 1389 0 l 0 0 z "},"k":{"ha":1666,"x_min":0,"x_max":1389,"o":"m 1111 0 l 1111 277 l 1389 277 l 1389 0 l 1111 0 m 833 277 l 833 555 l 1111 555 l 1111 277 l 833 277 m 833 833 l 833 1111 l 1111 1111 l 1111 833 l 833 833 m 0 0 l 0 1389 l 555 1389 l 555 833 l 833 833 l 833 555 l 555 555 l 555 0 l 0 0 m 1111 1111 l 1111 1389 l 1389 1389 l 1389 1111 l 1111 1111 z "},"l":{"ha":1666,"x_min":0,"x_max":1389,"o":"m 0 0 l 0 1389 l 555 1389 l 555 277 l 1389 277 l 1389 0 l 0 0 z "},"m":{"ha":1944,"x_min":0,"x_max":1666,"o":"m 833 833 l 833 1111 l 1111 1111 l 1111 833 l 833 833 m 0 0 l 0 1389 l 833 1389 l 833 1111 l 555 1111 l 555 0 l 0 0 m 1389 0 l 1389 1111 l 1111 1111 l 1111 1389 l 1666 1389 l 1666 0 l 1389 0 z "},"n":{"ha":1666,"x_min":0,"x_max":1389,"o":"m 1111 0 l 1111 1111 l 1389 1111 l 1389 0 l 1111 0 m 0 0 l 0 1389 l 1111 1389 l 1111 1111 l 555 1111 l 555 0 l 0 0 z "},"o":{"ha":1666,"x_min":0,"x_max":1389,"o":"m 1111 277 l 1111 1111 l 1389 1111 l 1389 277 l 1111 277 m 277 0 l 277 277 l 0 277 l 0 1111 l 277 1111 l 277 1389 l 1111 1389 l 1111 1111 l 555 1111 l 555 277 l 1111 277 l 1111 0 l 277 0 z "},"p":{"ha":1666,"x_min":0,"x_max":1389,"o":"m 1111 833 l 1111 1111 l 1389 1111 l 1389 833 l 1111 833 m 0 0 l 0 1389 l 1111 1389 l 1111 1111 l 555 1111 l 555 833 l 1111 833 l 1111 555 l 555 555 l 555 0 l 0 0 z "},"q":{"ha":1666,"x_min":0,"x_max":1389,"o":"m 1111 0 l 1111 277 l 1389 277 l 1389 0 l 1111 0 m 833 277 l 833 555 l 1111 555 l 1111 277 l 833 277 m 1111 555 l 1111 1111 l 1389 1111 l 1389 555 l 1111 555 m 277 0 l 277 277 l 0 277 l 0 1111 l 277 1111 l 277 1389 l 1111 1389 l 1111 1111 l 555 1111 l 555 277 l 833 277 l 833 0 l 277 0 z "},"r":{"ha":1666,"x_min":0,"x_max":1389,"o":"m 1111 0 l 1111 555 l 1389 555 l 1389 0 l 1111 0 m 1111 833 l 1111 1111 l 1389 1111 l 1389 833 l 1111 833 m 0 0 l 0 1389 l 1111 1389 l 1111 1111 l 555 1111 l 555 833 l 1111 833 l 1111 555 l 555 555 l 555 0 l 0 0 z "},"s":{"ha":1666,"x_min":0,"x_max":1389,"o":"m 0 0 l 0 277 l 833 277 l 833 555 l 0 555 l 0 1111 l 277 1111 l 277 1389 l 1389 1389 l 1389 1111 l 555 1111 l 555 833 l 1389 833 l 1389 277 l 1111 277 l 1111 0 l 0 0 z "},"t":{"ha":1389,"x_min":0,"x_max":1111,"o":"m 277 0 l 277 1111 l 0 1111 l 0 1389 l 1111 1389 l 1111 1111 l 833 1111 l 833 0 l 277 0 z "},"u":{"ha":1666,"x_min":0,"x_max":1389,"o":"m 277 0 l 277 277 l 0 277 l 0 1389 l 555 1389 l 555 277 l 1111 277 l 1111 0 l 277 0 m 1111 277 l 1111 1389 l 1389 1389 l 1389 277 l 1111 277 z "},"v":{"ha":1666,"x_min":0,"x_max":1389,"o":"m 555 0 l 555 277 l 277 277 l 277 555 l 0 555 l 0 1389 l 555 1389 l 555 555 l 1111 555 l 1111 277 l 833 277 l 833 0 l 555 0 m 1111 555 l 1111 1389 l 1389 1389 l 1389 555 l 1111 555 z "},"w":{"ha":1944,"x_min":0,"x_max":1666,"o":"m 1111 0 l 1111 277 l 1389 277 l 1389 0 l 1111 0 m 833 277 l 833 555 l 1111 555 l 1111 277 l 833 277 m 277 0 l 277 277 l 0 277 l 0 1389 l 555 1389 l 555 277 l 833 277 l 833 0 l 277 0 m 1389 277 l 1389 1389 l 1666 1389 l 1666 277 l 1389 277 z "},"x":{"ha":1389,"x_min":0,"x_max":1111,"o":"m 833 0 l 833 555 l 1111 555 l 1111 0 l 833 0 m 0 0 l 0 555 l 277 555 l 277 833 l 0 833 l 0 1389 l 555 1389 l 555 833 l 833 833 l 833 555 l 555 555 l 555 0 l 0 0 m 833 833 l 833 1389 l 1111 1389 l 1111 833 l 833 833 z "},"y":{"ha":1389,"x_min":0,"x_max":1111,"o":"m 277 0 l 277 833 l 0 833 l 0 1389 l 555 1389 l 555 833 l 833 833 l 833 0 l 277 0 m 833 833 l 833 1389 l 1111 1389 l 1111 833 l 833 833 z "},"z":{"ha":1666,"x_min":0,"x_max":1389,"o":"m 0 0 l 0 555 l 277 555 l 277 833 l 833 833 l 833 1111 l 0 1111 l 0 1389 l 1389 1389 l 1389 833 l 1111 833 l 1111 555 l 555 555 l 555 277 l 1389 277 l 1389 0 l 0 0 z "},"{":{"ha":1389,"x_min":0,"x_max":1111,"o":"m 277 0 l 277 555 l 0 555 l 0 1111 l 277 1111 l 277 1666 l 1111 1666 l 1111 1389 l 833 1389 l 833 277 l 1111 277 l 1111 0 l 277 0 z "},"|":{"ha":555,"x_min":0,"x_max":277,"o":"m 0 0 l 0 1666 l 277 1666 l 277 0 l 0 0 z "},"}":{"ha":1389,"x_min":0,"x_max":1111,"o":"m 0 0 l 0 277 l 277 277 l 277 1389 l 0 1389 l 0 1666 l 833 1666 l 833 1111 l 1111 1111 l 1111 555 l 833 555 l 833 0 l 0 0 z "},"~":{"ha":1389,"x_min":0,"x_max":1111,"o":"m 0 555 l 0 833 l 277 833 l 277 555 l 0 555 m 555 555 l 555 833 l 833 833 l 833 555 l 555 555 m 277 833 l 277 1111 l 555 1111 l 555 833 l 277 833 m 833 833 l 833 1111 l 1111 1111 l 1111 833 l 833 833 z "},"‘":{"ha":833,"x_min":0,"x_max":555,"o":"m 0 833 l 0 1389 l 277 1389 l 277 1666 l 555 1666 l 555 1111 l 277 1111 l 277 833 l 0 833 z "},"’":{"ha":833,"x_min":0,"x_max":555,"o":"m 0 833 l 0 1389 l 277 1389 l 277 1666 l 555 1666 l 555 1111 l 277 1111 l 277 833 l 0 833 z "},"“":{"ha":1666,"x_min":0,"x_max":1389,"o":"m 0 833 l 0 1389 l 277 1389 l 277 1666 l 555 1666 l 555 1111 l 277 1111 l 277 833 l 0 833 m 833 833 l 833 1389 l 1111 1389 l 1111 1666 l 1389 1666 l 1389 1111 l 1111 1111 l 1111 833 l 833 833 z "},"”":{"ha":1666,"x_min":0,"x_max":1389,"o":"m 0 833 l 0 1389 l 277 1389 l 277 1666 l 555 1666 l 555 1111 l 277 1111 l 277 833 l 0 833 m 833 833 l 833 1389 l 1111 1389 l 1111 1666 l 1389 1666 l 1389 1111 l 1111 1111 l 1111 833 l 833 833 z "}}}
